<?xml version='1.0' encoding='UTF-8' standalone='no'?>
<!-- Created with Fritzing (http://www.fritzing.org/) -->
<svg xmlns="http://www.w3.org/2000/svg" y="0in" version="1.2" x="0in"  width="2.82085in" baseProfile="tiny" height="2.11457in" viewBox="0 0 203.101 152.249">
    <desc >
        <referenceFile >Metro Express rev F SMT_pcb.svg</referenceFile>
    </desc>
    <desc >Fritzing footprint generated by brd2svg</desc>
    <g  id="silkscreen" gorn="0.2">
        <path fill="none" stroke-width="0.576"  d="M195.633,37.3915L202.813,44.5643L202.813,137.093L195.633,144.266L195.633,148.614A2.54665,2.54665,0,0,1,192.807,151.438L11.7912,151.438A2.54665,2.54665,0,0,1,8.96458,148.614L8.96458,3.63434A2.54665,2.54665,0,0,1,11.7912,0.810425L191.326,0.810425L195.633,5.11408L195.633,37.3915M189.678,68.9244a2.26318,2.26318,0,1,0,4.52636,0,2.26318,2.26318,0,1,0,-4.52636,0zM189.678,76.1242a2.26318,2.26318,0,1,0,4.52636,0,2.26318,2.26318,0,1,0,-4.52636,0zM19.4519,94.1926a1.12932,1.12932,0,1,0,2.25865,0,1.12932,1.12932,0,1,0,-2.25865,0zM19.4519,102.696a1.12932,1.12932,0,1,0,2.25865,0,1.12932,1.12932,0,1,0,-2.25865,0zM12.1935,129.692a1.97972,1.97972,0,1,0,3.95943,0,1.97972,1.97972,0,1,0,-3.95943,0zM24.666,129.692a2.26318,2.26318,0,1,0,4.52636,0,2.26318,2.26318,0,1,0,-4.52636,0zM186.852,97.0042a1.12932,1.12932,0,1,0,2.25865,0,1.12932,1.12932,0,1,0,-2.25865,0zM176.052,97.0042a1.12932,1.12932,0,1,0,2.25865,0,1.12932,1.12932,0,1,0,-2.25865,0zM20.2371,38.1969a0.704126,0.704126,0,1,0,1.40826,0,0.704126,0.704126,0,1,0,-1.40826,0zM20.2371,49.252a0.704126,0.704126,0,1,0,1.40826,0,0.704126,0.704126,0,1,0,-1.40826,0zM191.654,50.9244a4.24743,4.24743,0,1,0,8.49485,0,4.24743,4.24743,0,1,0,-8.49485,0zM191.654,130.124a4.24743,4.24743,0,1,0,8.49485,0,4.24743,4.24743,0,1,0,-8.49485,0zM47.6538,7.72438a4.24743,4.24743,0,1,0,8.49485,0,4.24743,4.24743,0,1,0,-8.49485,0zM44.0538,144.524a4.24743,4.24743,0,1,0,8.49485,0,4.24743,4.24743,0,1,0,-8.49485,0z" stroke="white"/>
        <g >
            <title >element:AD</title>
            <g >
                <title >package:1X06_SMT_4UCON_20609_MICRO</title>
                <line stroke-width="0.36" x1="157.662" y2="140.556"  stroke="white" y1="140.556" x2="147.74" stroke-linecap="round"/>
                <line stroke-width="0.36" x1="147.74" y2="148.493"  stroke="white" y1="140.556" x2="147.74" stroke-linecap="round"/>
                <line stroke-width="0.36" x1="147.74" y2="148.493"  stroke="white" y1="148.493" x2="150.292" stroke-linecap="round"/>
                <line stroke-width="0.36" x1="184.024" y2="148.493"  stroke="white" y1="148.493" x2="193.662" stroke-linecap="round"/>
                <line stroke-width="0.36" x1="193.662" y2="140.556"  stroke="white" y1="148.493" x2="193.662" stroke-linecap="round"/>
                <line stroke-width="0.36" x1="193.662" y2="140.556"  stroke="white" y1="140.556" x2="191.11" stroke-linecap="round"/>
                <g >
                    <title >polygon</title>
                    <path fill="none" stroke-width="0.36"  d="M152.729,144.405L151.029,142.705L154.431,142.705L152.729,144.405M152.489,144.164L152.97,144.164L152.489,144.164M152.129,143.804L153.33,143.804L152.129,143.804M151.769,143.444L153.69,143.444L151.769,143.444M151.409,143.084L154.05,143.084L151.409,143.084" stroke="white" stroke-linecap="round"/>
                </g>
            </g>
        </g>
        <g >
            <title >element:ICSP</title>
            <g >
                <title >package:2X03_SMT_4UCON_15881_MICRO</title>
                <line stroke-width="0.36" x1="199.311" y2="60.9024"  stroke="white" y1="63.1701" x2="199.311" stroke-linecap="round"/>
                <line stroke-width="0.36" x1="199.311" y2="60.9024"  stroke="white" y1="60.9024" x2="184.571" stroke-linecap="round"/>
                <line stroke-width="0.36" x1="184.571" y2="63.1701"  stroke="white" y1="60.9024" x2="184.571" stroke-linecap="round"/>
                <line stroke-width="0.36" x1="199.311" y2="84.1464"  stroke="white" y1="81.8784" x2="199.311" stroke-linecap="round"/>
                <line stroke-width="0.36" x1="199.311" y2="84.1464"  stroke="white" y1="84.1464" x2="184.571" stroke-linecap="round"/>
                <line stroke-width="0.36" x1="184.571" y2="81.8784"  stroke="white" y1="84.1464" x2="184.571" stroke-linecap="round"/>
                <g >
                    <title >polygon</title>
                    <path fill="none" stroke-width="0.36"  d="M181.907,62.5465L180.206,60.8457L183.607,60.8457L181.907,62.5465M180.421,60.8457L180.421,61.0611L180.421,60.8457M180.781,60.8457L180.781,61.4211L180.781,60.8457M181.141,60.8457L181.141,61.7811L181.141,60.8457M181.501,60.8457L181.501,62.1411L181.501,60.8457M181.861,60.8457L181.861,62.5011L181.861,60.8457M182.221,60.8457L182.221,62.2318L182.221,60.8457M182.581,60.8457L182.581,61.8718L182.581,60.8457M182.941,60.8457L182.941,61.5118L182.941,60.8457" stroke="white" stroke-linecap="round"/>
                </g>
            </g>
        </g>
        <g >
            <title >element:IOH</title>
            <g >
                <title >package:1X10_SMT_4UCON_20611_MICRO</title>
                <line stroke-width="0.36" x1="66.9419" y2="3.75591"  stroke="white" y1="3.75591" x2="57.0206" stroke-linecap="round"/>
                <line stroke-width="0.36" x1="57.0206" y2="11.6929"  stroke="white" y1="3.75591" x2="57.0206" stroke-linecap="round"/>
                <line stroke-width="0.36" x1="57.0206" y2="11.6929"  stroke="white" y1="11.6929" x2="59.5718" stroke-linecap="round"/>
                <line stroke-width="0.36" x1="122.104" y2="11.6929"  stroke="white" y1="11.6929" x2="131.742" stroke-linecap="round"/>
                <line stroke-width="0.36" x1="131.742" y2="3.75591"  stroke="white" y1="11.6929" x2="131.742" stroke-linecap="round"/>
                <line stroke-width="0.36" x1="131.742" y2="3.75591"  stroke="white" y1="3.75591" x2="129.19" stroke-linecap="round"/>
                <g >
                    <title >polygon</title>
                    <path fill="none" stroke-width="0.36"  d="M62.0096,6.88535L60.3088,5.18457L63.7104,5.18457L62.0096,6.88535M61.7687,6.64441L62.2506,6.64441L61.7687,6.64441M61.4087,6.28441L62.6106,6.28441L61.4087,6.28441M61.0487,5.92441L62.9706,5.92441L61.0487,5.92441M60.6887,5.56441L63.3306,5.56441L60.6887,5.56441" stroke="white" stroke-linecap="round"/>
                </g>
            </g>
        </g>
        <g >
            <title >element:IOL</title>
            <g >
                <title >package:1X08_SMT_4UCON_20610_MICRO</title>
                <line stroke-width="0.36" x1="143.262" y2="3.75591"  stroke="white" y1="3.75591" x2="133.34" stroke-linecap="round"/>
                <line stroke-width="0.36" x1="133.34" y2="11.6929"  stroke="white" y1="3.75591" x2="133.34" stroke-linecap="round"/>
                <line stroke-width="0.36" x1="133.34" y2="11.6929"  stroke="white" y1="11.6929" x2="135.892" stroke-linecap="round"/>
                <line stroke-width="0.36" x1="184.024" y2="11.6929"  stroke="white" y1="11.6929" x2="193.662" stroke-linecap="round"/>
                <line stroke-width="0.36" x1="193.662" y2="3.75591"  stroke="white" y1="11.6929" x2="193.662" stroke-linecap="round"/>
                <line stroke-width="0.36" x1="193.662" y2="3.75591"  stroke="white" y1="3.75591" x2="191.11" stroke-linecap="round"/>
                <g >
                    <title >polygon</title>
                    <path fill="none" stroke-width="0.36"  d="M138.329,6.88535L136.629,5.18457L140.031,5.18457L138.329,6.88535M138.089,6.64441L138.57,6.64441L138.089,6.64441M137.729,6.28441L138.93,6.28441L137.729,6.28441M137.369,5.92441L139.29,5.92441L137.369,5.92441M137.009,5.56441L139.65,5.56441L137.009,5.56441" stroke="white" stroke-linecap="round"/>
                </g>
            </g>
        </g>
        <g >
            <title >element:ON/OFF</title>
            <g >
                <title >package:EG1390</title>
                <line stroke-width="0.36" x1="15.6206" y2="88.2396"  stroke="white" y1="108.649" x2="15.6206" stroke-linecap="round"/>
                <line stroke-width="0.36" x1="15.6206" y2="88.2396"  stroke="white" y1="88.2396" x2="25.5419" stroke-linecap="round"/>
                <line stroke-width="0.36" x1="25.5419" y2="108.649"  stroke="white" y1="88.2396" x2="25.5419" stroke-linecap="round"/>
                <line stroke-width="0.36" x1="25.5419" y2="108.649"  stroke="white" y1="108.649" x2="15.6206" stroke-linecap="round"/>
            </g>
        </g>
        <g >
            <title >element:PC1</title>
            <g >
                <title >package:PANASONIC_D</title>
                <line stroke-width="0.576" x1="60.0803" y2="131.777"  stroke="white" y1="131.777" x2="53.5607" stroke-linecap="round"/>
                <line stroke-width="0.576" x1="53.5607" y2="118.171"  stroke="white" y1="131.777" x2="53.5607" stroke-linecap="round"/>
                <line stroke-width="0.576" x1="53.5607" y2="113.352"  stroke="white" y1="118.171" x2="58.3795" stroke-linecap="round"/>
                <line stroke-width="0.576" x1="58.3795" y2="113.352"  stroke="white" y1="113.352" x2="60.0803" stroke-linecap="round"/>
                <line stroke-width="0.576" x1="65.4661" y2="113.352"  stroke="white" y1="113.352" x2="67.1669" stroke-linecap="round"/>
                <line stroke-width="0.576" x1="67.1669" y2="118.171"  stroke="white" y1="113.352" x2="71.9858" stroke-linecap="round"/>
                <line stroke-width="0.576" x1="71.9858" y2="131.777"  stroke="white" y1="118.171" x2="71.9858" stroke-linecap="round"/>
                <line stroke-width="0.576" x1="71.9858" y2="131.777"  stroke="white" y1="131.777" x2="65.4661" stroke-linecap="round"/>
            </g>
        </g>
        <g >
            <title >element:PC2</title>
            <g >
                <title >package:PANASONIC_D</title>
                <line stroke-width="0.576" x1="79.1136" y2="109.169"  stroke="white" y1="102.65" x2="79.1136" stroke-linecap="round"/>
                <line stroke-width="0.576" x1="79.1136" y2="109.169"  stroke="white" y1="109.169" x2="65.5075" stroke-linecap="round"/>
                <line stroke-width="0.576" x1="65.5075" y2="104.35"  stroke="white" y1="109.169" x2="60.6887" stroke-linecap="round"/>
                <line stroke-width="0.576" x1="60.6887" y2="102.65"  stroke="white" y1="104.35" x2="60.6887" stroke-linecap="round"/>
                <line stroke-width="0.576" x1="60.6887" y2="95.5627"  stroke="white" y1="97.2634" x2="60.6887" stroke-linecap="round"/>
                <line stroke-width="0.576" x1="60.6887" y2="90.7438"  stroke="white" y1="95.5627" x2="65.5075" stroke-linecap="round"/>
                <line stroke-width="0.576" x1="65.5075" y2="90.7438"  stroke="white" y1="90.7438" x2="79.1136" stroke-linecap="round"/>
                <line stroke-width="0.576" x1="79.1136" y2="97.2634"  stroke="white" y1="90.7438" x2="79.1136" stroke-linecap="round"/>
            </g>
        </g>
        <g >
            <title >element:POWER</title>
            <g >
                <title >package:1X08_SMT_4UCON_20610_MICRO</title>
                <line stroke-width="0.36" x1="92.862" y2="140.556"  stroke="white" y1="140.556" x2="82.9404" stroke-linecap="round"/>
                <line stroke-width="0.36" x1="82.9404" y2="148.493"  stroke="white" y1="140.556" x2="82.9404" stroke-linecap="round"/>
                <line stroke-width="0.36" x1="82.9404" y2="148.493"  stroke="white" y1="148.493" x2="85.4921" stroke-linecap="round"/>
                <line stroke-width="0.36" x1="133.624" y2="148.493"  stroke="white" y1="148.493" x2="143.262" stroke-linecap="round"/>
                <line stroke-width="0.36" x1="143.262" y2="140.556"  stroke="white" y1="148.493" x2="143.262" stroke-linecap="round"/>
                <line stroke-width="0.36" x1="143.262" y2="140.556"  stroke="white" y1="140.556" x2="140.71" stroke-linecap="round"/>
                <g >
                    <title >polygon</title>
                    <path fill="none" stroke-width="0.36"  d="M87.9293,143.685L86.2286,141.985L89.6306,141.985L87.9293,143.685M87.6888,143.444L88.1705,143.444L87.6888,143.444M87.3288,143.084L88.5305,143.084L87.3288,143.084M86.9688,142.724L88.8905,142.724L86.9688,142.724M86.6088,142.364L89.2505,142.364L86.6088,142.364" stroke="white" stroke-linecap="round"/>
                </g>
            </g>
        </g>
        <g >
            <title >element:RESET</title>
            <g >
                <title >package:EVQ-Q2</title>
                <line stroke-width="0.576" x1="36.0556" y2="20.1884"  stroke="white" y1="20.1884" x2="17.3469" stroke-linecap="round"/>
                <line stroke-width="0.576" x1="17.3469" y2="3.18047"  stroke="white" y1="3.18047" x2="36.0556" stroke-linecap="round"/>
                <line stroke-width="0.576" x1="36.0556" y2="15.086"  stroke="white" y1="8.28281" x2="36.0556" stroke-linecap="round"/>
                <line stroke-width="0.576" x1="17.3469" y2="8.28281"  stroke="white" y1="15.086" x2="17.3469" stroke-linecap="round"/>
                <circle fill="none" stroke-width="0.576"  cx="26.7012" r="4.26132" stroke="white" cy="11.6844"/>
                <circle fill="none" stroke-width="0.576"  cx="26.7012" r="2.83465" stroke="white" cy="11.6844"/>
            </g>
        </g>
        <g >
            <title >element:U$1</title>
            <g >
                <title >package:TQFN48_7MM</title>
                <line stroke-width="0.36" x1="151.255" y2="62.3197"  stroke="white" y1="62.3197" x2="149.697" stroke-linecap="round"/>
                <line stroke-width="0.36" x1="149.697" y2="63.8788"  stroke="white" y1="62.3197" x2="149.697" stroke-linecap="round"/>
                <line stroke-width="0.36" x1="168.547" y2="62.3197"  stroke="white" y1="62.3197" x2="170.106" stroke-linecap="round"/>
                <line stroke-width="0.36" x1="170.106" y2="63.8788"  stroke="white" y1="62.3197" x2="170.106" stroke-linecap="round"/>
                <line stroke-width="0.36" x1="149.697" y2="82.7294"  stroke="white" y1="81.1699" x2="149.697" stroke-linecap="round"/>
                <line stroke-width="0.36" x1="149.697" y2="82.7294"  stroke="white" y1="82.7294" x2="151.255" stroke-linecap="round"/>
                <line stroke-width="0.36" x1="170.106" y2="82.7294"  stroke="white" y1="81.1699" x2="170.106" stroke-linecap="round"/>
                <line stroke-width="0.36" x1="170.106" y2="82.7294"  stroke="white" y1="82.7294" x2="168.547" stroke-linecap="round"/>
                <circle fill="none" stroke-width="1.152"  cx="148.908" r="0.36" stroke="white" cy="83.6705"/>
            </g>
        </g>
        <g >
            <title >element:U$11</title>
            <g >
                <title >package:METRO_M0_BACK</title>
            </g>
        </g>
        <g >
            <title >element:U$30</title>
            <g >
                <title >package:METRO_M0_FRONT</title>
            </g>
        </g>
        <g >
            <title >element:U1</title>
            <g >
                <title >package:SOT223-R</title>
                <line stroke-width="0.576" x1="50.3076" y2="108.948"  stroke="white" y1="108.948" x2="40.1028" stroke-linecap="round"/>
                <line stroke-width="0.576" x1="50.3076" y2="89.9561"  stroke="white" y1="89.9561" x2="40.1028" stroke-linecap="round"/>
                <line stroke-width="0.576" x1="40.1028" y2="89.9561"  stroke="white" y1="108.948" x2="40.1028" stroke-linecap="round"/>
                <line stroke-width="0.576" x1="50.3076" y2="97.4002"  stroke="white" y1="108.744" x2="50.3076" stroke-linecap="round"/>
                <line stroke-width="0.576" x1="50.3076" y2="90.1606"  stroke="white" y1="97.1849" x2="50.3076" stroke-linecap="round"/>
            </g>
        </g>
        <g >
            <title >element:U3</title>
            <g >
                <title >package:SOIC8_208MIL</title>
                <line stroke-width="0.576" x1="115.658" y2="62.8186"  stroke="white" y1="73.5905" x2="115.658" stroke-linecap="round"/>
                <line stroke-width="0.576" x1="129.264" y2="73.5905"  stroke="white" y1="62.8186" x2="129.264" stroke-linecap="round"/>
                <circle fill="none" stroke-width="0.576"  cx="116.989" r="0.72" stroke="white" cy="70.7244"/>
            </g>
        </g>
        <g >
            <title >element:X1</title>
            <g >
                <title >package:DCJACK_2MM_SMT</title>
                <path fill="none" stroke-width="0.36"  d="M2.83465,116.937A2.83465,2.83465,0,0,0,0,119.771" stroke="white"/>
                <line stroke-width="0.36" x1="0" y2="139.614"  stroke="white" y1="119.771" x2="0" stroke-linecap="round"/>
                <path fill="none" stroke-width="0.36"  d="M0,139.614A2.83465,2.83465,0,0,0,2.83465,142.448" stroke="white"/>
                <line stroke-width="0.36" x1="43.2397" y2="133.921"  stroke="white" y1="142.448" x2="43.2397" stroke-linecap="round"/>
                <line stroke-width="0.36" x1="43.2397" y2="133.921"  stroke="white" y1="133.921" x2="39.685" stroke-linecap="round"/>
                <line stroke-width="0.36" x1="39.685" y2="116.937"  stroke="white" y1="133.921" x2="39.685" stroke-linecap="round"/>
                <line stroke-width="0.36" x1="9.44503" y2="116.937"  stroke="white" y1="116.937" x2="2.83465" stroke-linecap="round"/>
                <line stroke-width="0.36" x1="27.445" y2="116.937"  stroke="white" y1="116.937" x2="18.6746" stroke-linecap="round"/>
                <line stroke-width="0.36" x1="39.685" y2="116.937"  stroke="white" y1="116.937" x2="36.6746" stroke-linecap="round"/>
                <line stroke-width="0.36" x1="2.83465" y2="142.448"  stroke="white" y1="142.448" x2="9.39967" stroke-linecap="round"/>
                <line stroke-width="0.36" x1="18.6746" y2="142.448"  stroke="white" y1="142.448" x2="27.3997" stroke-linecap="round"/>
                <line stroke-width="0.36" x1="36.6746" y2="142.448"  stroke="white" y1="142.448" x2="43.2397" stroke-linecap="round"/>
            </g>
        </g>
        <g >
            <title >element:X2</title>
            <g >
                <title >package:2X05_1.27MM_BOX_POSTS</title>
                <line stroke-width="0.36" x1="191.652" y2="104.658"  stroke="white" y1="104.658" x2="201.007" stroke-linecap="round"/>
                <line stroke-width="0.36" x1="201.007" y2="89.3506"  stroke="white" y1="104.658" x2="201.007" stroke-linecap="round"/>
                <line stroke-width="0.36" x1="201.007" y2="89.3506"  stroke="white" y1="89.3506" x2="191.652" stroke-linecap="round"/>
                <line stroke-width="0.36" x1="173.511" y2="104.658"  stroke="white" y1="104.658" x2="164.156" stroke-linecap="round"/>
                <line stroke-width="0.36" x1="164.156" y2="89.3506"  stroke="white" y1="104.658" x2="164.156" stroke-linecap="round"/>
                <line stroke-width="0.36" x1="164.156" y2="89.3506"  stroke="white" y1="89.3506" x2="173.511" stroke-linecap="round"/>
                <g >
                    <title >polygon</title>
                    <path fill="none" stroke-width="0.36"  d="M201.007,85.6656L199.589,88.5002L198.172,85.6656L201.007,85.6656M200.917,85.8442L198.261,85.8442L200.917,85.8442M200.737,86.2042L198.441,86.2042L200.737,86.2042M200.557,86.5642L198.621,86.5642L200.557,86.5642M200.377,86.9242L198.801,86.9242L200.377,86.9242M200.197,87.2842L198.981,87.2842L200.197,87.2842M200.017,87.6442L199.161,87.6442L200.017,87.6442M199.837,88.0042L199.341,88.0042L199.837,88.0042" stroke="white" stroke-linecap="round"/>
                </g>
            </g>
        </g>
        <g >
            <title >element:X3</title>
            <g >
                <title >package:4UCONN_20329_V2</title>
                <line stroke-width="0.36" x1="24.0593" y2="38.9055"  stroke="white" y1="36.6378" x2="24.0593" stroke-linecap="round"/>
                <line stroke-width="0.36" x1="24.0593" y2="50.811"  stroke="white" y1="48.5433" x2="24.0593" stroke-linecap="round"/>
                <line stroke-width="0.36" x1="11.3034" y2="32.9527"  stroke="white" y1="32.9527" x2="8.75225" stroke-linecap="round"/>
                <line stroke-width="0.36" x1="8.75225" y2="54.4961"  stroke="white" y1="32.9527" x2="8.75225" stroke-linecap="round"/>
                <line stroke-width="0.36" x1="8.75225" y2="54.4961"  stroke="white" y1="54.4961" x2="11.3034" stroke-linecap="round"/>
            </g>
        </g>
        <g >
            <title >element:Y1</title>
            <g >
                <title >package:CRYSTAL_8X3.8</title>
                <line stroke-width="0.576" x1="142.165" y2="101.665"  stroke="white" y1="101.665" x2="143.299" stroke-linecap="round"/>
                <line stroke-width="0.576" x1="143.299" y2="90.3269"  stroke="white" y1="101.665" x2="143.299" stroke-linecap="round"/>
                <line stroke-width="0.576" x1="143.299" y2="90.3269"  stroke="white" y1="90.3269" x2="142.165" stroke-linecap="round"/>
                <line stroke-width="0.576" x1="136.78" y2="90.3269"  stroke="white" y1="90.3269" x2="126.575" stroke-linecap="round"/>
                <line stroke-width="0.576" x1="136.78" y2="101.665"  stroke="white" y1="101.665" x2="126.575" stroke-linecap="round"/>
                <line stroke-width="0.576" x1="121.189" y2="101.665"  stroke="white" y1="101.665" x2="120.055" stroke-linecap="round"/>
                <line stroke-width="0.576" x1="120.055" y2="90.3269"  stroke="white" y1="101.665" x2="120.055" stroke-linecap="round"/>
                <line stroke-width="0.576" x1="120.055" y2="90.3269"  stroke="white" y1="90.3269" x2="121.189" stroke-linecap="round"/>
                <circle fill="none" stroke-width="0.864"  cx="122.101" r="0.916409" stroke="white" cy="96.0682"/>
            </g>
        </g>
        <line fill="none" stroke-width="0.576" x1="147.74" y2="151.961"  stroke="white" y1="151.961" x2="193.662" fill-opacity="1"/>
        <line fill="none" stroke-width="0.576" x1="147.74" y2="151.724"  stroke="white" y1="151.961" x2="147.74" fill-opacity="1"/>
        <line fill="none" stroke-width="0.576" x1="193.662" y2="151.724"  stroke="white" y1="151.961" x2="193.662" fill-opacity="1"/>
        <line fill="none" stroke-width="0.576" x1="57.0206" y2="0.288"  stroke="white" y1="0.288" x2="131.742" fill-opacity="1"/>
        <line fill="none" stroke-width="0.576" x1="57.0206" y2="0.288"  stroke="white" y1="0.524409" x2="57.0206" fill-opacity="1"/>
        <line fill="none" stroke-width="0.576" x1="131.742" y2="0.288"  stroke="white" y1="0.524409" x2="131.742" fill-opacity="1"/>
        <line fill="none" stroke-width="0.576" x1="133.34" y2="0.288"  stroke="white" y1="0.288" x2="193.662" fill-opacity="1"/>
        <line fill="none" stroke-width="0.576" x1="133.34" y2="0.288"  stroke="white" y1="0.524409" x2="133.34" fill-opacity="1"/>
        <line fill="none" stroke-width="0.576" x1="193.662" y2="0.288"  stroke="white" y1="0.524409" x2="193.662" fill-opacity="1"/>
        <line fill="none" stroke-width="0.576" x1="82.9404" y2="151.961"  stroke="white" y1="151.961" x2="143.262" fill-opacity="1"/>
        <line fill="none" stroke-width="0.576" x1="82.9404" y2="151.724"  stroke="white" y1="151.961" x2="82.9404" fill-opacity="1"/>
        <line fill="none" stroke-width="0.576" x1="143.262" y2="151.724"  stroke="white" y1="151.961" x2="143.262" fill-opacity="1"/>
        <line fill="none" stroke-width="0.576" x1="0.288" y2="145.964"  stroke="white" y1="145.964" x2="8.7012" fill-opacity="1"/>
        <line fill="none" stroke-width="0.576" x1="0.288" y2="116.937"  stroke="white" y1="116.937" x2="8.7012" fill-opacity="1"/>
        <line fill="none" stroke-width="0.576" x1="0.288" y2="116.937"  stroke="white" y1="145.964" x2="0.288" fill-opacity="1"/>
        <line fill="none" stroke-width="0.576" x1="7.05146" y2="58.0393"  stroke="white" y1="58.0393" x2="8.7012" fill-opacity="1"/>
        <line fill="none" stroke-width="0.576" x1="7.05146" y2="29.4095"  stroke="white" y1="29.4095" x2="8.7012" fill-opacity="1"/>
        <line fill="none" stroke-width="0.576" x1="7.05146" y2="29.4095"  stroke="white" y1="58.0393" x2="7.05146" fill-opacity="1"/>
    </g>
    <g  id="copper1" gorn="0.3">
        <g  id="copper0" gorn="0.3.0">
            <rect fill="#F7BD13" y="137.65" stroke-width="0" x="158.455"  width="2.89134" id="connector1pad" stroke="none" height="5.95276" gorn="0.3.0.0"/>
            <rect fill="#F7BD13" y="145.446" stroke-width="0" x="165.655"  width="2.89134" id="connector2pad" stroke="none" height="5.95276" gorn="0.3.0.1"/>
            <rect fill="#F7BD13" y="137.65" stroke-width="0" x="172.855"  width="2.89134" id="connector3pad" stroke="none" height="5.95276" gorn="0.3.0.2"/>
            <rect fill="#F7BD13" y="145.446" stroke-width="0" x="180.055"  width="2.89134" id="connector4pad" stroke="none" height="5.95276" gorn="0.3.0.3"/>
            <rect fill="#F7BD13" y="137.65" stroke-width="0" x="187.255"  width="2.89134" id="connector5pad" stroke="none" height="5.95276" gorn="0.3.0.4"/>
            <g  transform="matrix(0, -1, 1, 0, -30.1692, 114.073)">
                <g >
                    <g >
                        <rect fill="#F7BD13" y="70.7182" stroke-width="0" x="40.9743"  width="1.95591" id="connector47pad" stroke="none" height="2.8063" gorn="0.3.0.5.0.0.0"/>
                    </g>
                </g>
            </g>
            <g  transform="matrix(0, 1, -1, 0, 249.711, -119.063)">
                <g >
                    <g >
                        <rect fill="#F7BD13" y="61.7811" stroke-width="0" x="182.969"  width="2.83465" id="connector48pad" stroke="none" height="7.08661" gorn="0.3.0.6.0.0.0"/>
                    </g>
                </g>
            </g>
            <g  transform="matrix(0, 1, -1, 0, 264.82, -134.171)">
                <g >
                    <g >
                        <rect fill="#F7BD13" y="61.7811" stroke-width="0" x="198.078"  width="2.83465" id="connector49pad" stroke="none" height="7.08661" gorn="0.3.0.7.0.0.0"/>
                    </g>
                </g>
            </g>
            <g  transform="matrix(0, 1, -1, 0, 256.911, -111.863)">
                <g >
                    <g >
                        <rect fill="#F7BD13" y="68.9811" stroke-width="0" x="182.969"  width="2.83465" id="connector50pad" stroke="none" height="7.08661" gorn="0.3.0.8.0.0.0"/>
                    </g>
                </g>
            </g>
            <g  transform="matrix(0, 1, -1, 0, 272.02, -126.971)">
                <g >
                    <g >
                        <rect fill="#F7BD13" y="68.9811" stroke-width="0" x="198.078"  width="2.83465" id="connector51pad" stroke="none" height="7.08661" gorn="0.3.0.9.0.0.0"/>
                    </g>
                </g>
            </g>
            <g  transform="matrix(0, 1, -1, 0, 264.111, -104.663)">
                <g >
                    <g >
                        <rect fill="#F7BD13" y="76.181" stroke-width="0" x="182.969"  width="2.83465" id="connector52pad" stroke="none" height="7.08661" gorn="0.3.0.10.0.0.0"/>
                    </g>
                </g>
            </g>
            <g  transform="matrix(0, 1, -1, 0, 279.22, -119.771)">
                <g >
                    <g >
                        <rect fill="#F7BD13" y="76.181" stroke-width="0" x="198.078"  width="2.83465" id="connector53pad" stroke="none" height="7.08661" gorn="0.3.0.11.0.0.0"/>
                    </g>
                </g>
            </g>
            <rect fill="#F7BD13" y="8.64569" stroke-width="0" x="60.5356"  width="2.89134" id="connector54pad" stroke="none" height="5.95276" gorn="0.3.0.12"/>
            <rect fill="#F7BD13" y="0.850392" stroke-width="0" x="67.7356"  width="2.89134" id="connector55pad" stroke="none" height="5.95276" gorn="0.3.0.13"/>
            <rect fill="#F7BD13" y="8.64569" stroke-width="0" x="74.9354"  width="2.89134" id="connector56pad" stroke="none" height="5.95276" gorn="0.3.0.14"/>
            <rect fill="#F7BD13" y="0.850392" stroke-width="0" x="82.1354"  width="2.89134" id="connector57pad" stroke="none" height="5.95276" gorn="0.3.0.15"/>
            <rect fill="#F7BD13" y="8.64569" stroke-width="0" x="89.3354"  width="2.89134" id="connector58pad" stroke="none" height="5.95276" gorn="0.3.0.16"/>
            <rect fill="#F7BD13" y="0.850392" stroke-width="0" x="96.5354"  width="2.89134" id="connector59pad" stroke="none" height="5.95276" gorn="0.3.0.17"/>
            <rect fill="#F7BD13" y="8.64569" stroke-width="0" x="103.735"  width="2.89134" id="connector60pad" stroke="none" height="5.95276" gorn="0.3.0.18"/>
            <rect fill="#F7BD13" y="0.850392" stroke-width="0" x="110.935"  width="2.89134" id="connector61pad" stroke="none" height="5.95276" gorn="0.3.0.19"/>
            <rect fill="#F7BD13" y="8.64569" stroke-width="0" x="118.135"  width="2.89134" id="connector62pad" stroke="none" height="5.95276" gorn="0.3.0.20"/>
            <rect fill="#F7BD13" y="0.850392" stroke-width="0" x="125.335"  width="2.89134" id="connector63pad" stroke="none" height="5.95276" gorn="0.3.0.21"/>
            <rect fill="#F7BD13" y="8.64569" stroke-width="0" x="136.855"  width="2.89134" id="connector64pad" stroke="none" height="5.95276" gorn="0.3.0.22"/>
            <rect fill="#F7BD13" y="0.850392" stroke-width="0" x="144.055"  width="2.89134" id="connector65pad" stroke="none" height="5.95276" gorn="0.3.0.23"/>
            <rect fill="#F7BD13" y="8.64569" stroke-width="0" x="151.255"  width="2.89134" id="connector66pad" stroke="none" height="5.95276" gorn="0.3.0.24"/>
            <rect fill="#F7BD13" y="0.850392" stroke-width="0" x="158.455"  width="2.89134" id="connector67pad" stroke="none" height="5.95276" gorn="0.3.0.25"/>
            <rect fill="#F7BD13" y="8.64569" stroke-width="0" x="165.655"  width="2.89134" id="connector68pad" stroke="none" height="5.95276" gorn="0.3.0.26"/>
            <rect fill="#F7BD13" y="0.850392" stroke-width="0" x="172.855"  width="2.89134" id="connector69pad" stroke="none" height="5.95276" gorn="0.3.0.27"/>
            <rect fill="#F7BD13" y="8.64569" stroke-width="0" x="180.055"  width="2.89134" id="connector70pad" stroke="none" height="5.95276" gorn="0.3.0.28"/>
            <rect fill="#F7BD13" y="0.850392" stroke-width="0" x="187.255"  width="2.89134" id="connector71pad" stroke="none" height="5.95276" gorn="0.3.0.29"/>
            <circle fill="none" stroke-width="0.95868" connectorname="DCSWITCH"  cx="24.1812" id="connector72pad" r="1.89666" stroke="#F7BD13" gorn="0.3.0.30" cy="112.844"/>
            <rect fill="#F7BD13" y="137.65" stroke-width="0" x="93.6554"  width="2.89134" id="connector92pad" stroke="none" height="5.95276" gorn="0.3.0.31"/>
            <rect fill="#F7BD13" y="145.446" stroke-width="0" x="100.855"  width="2.89134" id="connector93pad" stroke="none" height="5.95276" gorn="0.3.0.32"/>
            <rect fill="#F7BD13" y="137.65" stroke-width="0" x="108.055"  width="2.89134" id="connector94pad" stroke="none" height="5.95276" gorn="0.3.0.33"/>
            <rect fill="#F7BD13" y="145.446" stroke-width="0" x="115.255"  width="2.89134" id="connector95pad" stroke="none" height="5.95276" gorn="0.3.0.34"/>
            <rect fill="#F7BD13" y="137.65" stroke-width="0" x="122.455"  width="2.89134" id="connector96pad" stroke="none" height="5.95276" gorn="0.3.0.35"/>
            <rect fill="#F7BD13" y="145.446" stroke-width="0" x="129.655"  width="2.89134" id="connector97pad" stroke="none" height="5.95276" gorn="0.3.0.36"/>
            <rect fill="#F7BD13" y="137.65" stroke-width="0" x="136.855"  width="2.89134" id="connector98pad" stroke="none" height="5.95276" gorn="0.3.0.37"/>
            <rect fill="#F7BD13" y="145.446" stroke-width="0" x="151.255"  width="2.89134" id="connector0pad" stroke="none" height="5.95276" gorn="0.3.0.38"/>
        </g>
    </g>
</svg>
